# xmcd
#
# Track frame offsets:
#	150
#	13954
#	29430
#	45407
#	60661
#	79369
#	91836
#	110990
#	127608
#	142081
#	158063
#	172536
#	189628
#	207108
#	222918
#	239494
#	254580
#	271803
#	288936
#	304112
#	318243
#	335112
#
# Disc length: 4679 seconds
# Revision: 2
# Processed by: cddbd v1.5.2PL0 Copyright (c) Steve Scherf et al.
# Submitted via: dBpowerAMP V12.0
#
DISCID=3e124516
DTITLE=Various Artist - Cream Of Country Vol 16
DYEAR=2012
DGENRE=Country
TTITLE0=Dierks Bently - 5-1-5-0
TTITLE1=Carrie Underwood - Good Girl
TTITLE2=Blake Shelton - Drink On It
TTITLE3=Tim McGraw - Better Than I Used To Be
TTITLE4=Kenny Chesney - Come Over
TTITLE5=Chris Young - You
TTITLE6=Miranda Lambert - Over You
TTITLE7=Eli Young Band - Even If It Breaks Your Heart  
TTITLE8=Kip Moore - Somethin' 'Bout A Truck 
TTITLE9=Little Big Town - Pontoon
TTITLE10=Eric Church - Drink In My Hand
TTITLE11=Zac Brown Band - No Hurry
TTITLE12=The Band Perry - All Your Life  
TTITLE13=Lee Brice - A Woman Like You
TTITLE14=Luke Bryan - I Don't Want This Night to End
TTITLE15=Easton Corbin - Lovin' Is Fun
TTITLE16=Scott McCreey - The Trouble With Girls 
TTITLE17=Martina McBride - I'm Gonna Love You Through It  
TTITLE18=Josh Turner - Time Is Love 
TTITLE19=Love and Theft - Angel Eyes
TTITLE20=David Nail ft. Sara Buxton - Let It Rain 
TTITLE21=Jake Owen - Alone With You
EXTD=
EXTT0=
EXTT1=
EXTT2=
EXTT3=
EXTT4=
EXTT5=
EXTT6=
EXTT7=
EXTT8=
EXTT9=
EXTT10=
EXTT11=
EXTT12=
EXTT13=
EXTT14=
EXTT15=
EXTT16=
EXTT17=
EXTT18=
EXTT19=
EXTT20=
EXTT21=
PLAYORDER=
